<svg xmlns="http://www.w3.org/2000/svg" viewBox="0 0 270.933 270.933">
  <g fill="#fff">
    <path d="M169.728 110.902c-2.508.056-4.534 2.12-5.52 4.234.47 2.772-.59 6.558-3.918 6.543-2.923.06-3.76-4.1-6.992-3.37-4.524-.25-7.22 5.53-4.95 9.11 1.435 3.28-2.694 6.68-5.583 4.57-4.082-2.03-9.048 2.49-7.667 6.9.268 2.82 4.583 4.17 2.746 7.55-.806 3.07-4.458 2.04-6.692 2.89-3.327 2.04-4.107 6.54-1.936 9.78 1.68 1.93 5.557 2.39 5.117 5.73.33 3.23-3.152 3.73-4.95 5.4-2.164 3.09-1.835 7.62 1.44 9.74 2.048 1.58 6.183-.14 7.02 3.18 1.112 3.01-1.276 4.03-2.467 6.17-.6 3.15.257 7.5 3.55 8.48 2.747 1.58 5.977-2.54 8.417.22 2.362 1.922.564 4.93.045 7.31.306 3.67 3.608 7.01 7.517 5.803 2.514-.86 4.323-4.99 7.517-2.49 2.972 1.893.52 6.68 3.81 8.555 2.778 2.93 8.507 1.17 9.408-2.7 1.058-3.314 6.357-3.303 7.307.06.824 3.256 4.814 4.853 7.863 3.723 2.795-1.41 4.4-4.52 3.84-7.73.896-3.073 5.28-3.38 6.947-.763 2.63 3.15 8.4 1.2 9.048-2.7 1.628-2.84-2.49-6.19.255-8.764 1.732-2.455 4.695-.67 6.903-.09 3.97-.295 6.94-4.29 5.48-8.313-1.028-2.173-4.114-3.8-2.66-6.72.83-2.895 4.335-2.36 6.617-2.85 2.955-1.845 4.423-5.86 2.45-8.973-.783-2.755-4.847-2.404-5.405-5.402-1.08-3.433 2.1-4.96 4.397-6.21 2.587-2.74 2.51-7.66-.692-9.92-2.162-1.914-6.552.02-7.414-3.573-1.738-3.725 3.693-5.034 2.916-8.65.582-4.43-4.913-7.78-8.542-5.263-3.538 1.457-6.434-3.14-4.396-6.076 1.696-3.686-1.772-8.86-6.076-7.91-3.093-.16-4.198 4.86-7.608 2.944-3.12-.89-1.988-4.83-2.926-7.08-1.57-2.732-5.21-4.44-8.116-2.55-3.148.894-2.437 5.875-6.153 5.87-3.467.63-3.943-3.16-5.536-5.06-1.23-.916-2.85-1.55-4.42-1.62zm9.525 40.527c8.588-.26 14.953 9.24 12.273 17.3-1.758 6.79-9.6 11.58-16.52 8.78-7.364-2.51-10.82-12.19-7.037-19.05 2.09-4.21 6.49-7.11 11.28-7.05z"/>
    <path d="M101.15 159.967c-.942-.034-1.904.195-2.812.76-3.24.833-2.55 6.026-6.348 5.928-3.49.542-3.78-3.347-5.552-5.208-2.8-2.246-7.234-1.81-9.093 1.396-1.694 2.18.147 6.453-3.18 7.563-3.004 1.607-4.376-2.023-6.664-2.84-4.67-1.7-8.94 3.615-7.14 7.804 2.19 3.03-1.14 7.865-4.71 5.88-3.98-2.39-9.41 1.813-8.14 6.394-.06 2.94 4.49 4.297 2.84 7.624-.68 3.07-4.26 2.575-6.63 3.033-2.86 1.85-4.4 5.64-2.56 8.83.81 3.03 5.61 2.66 5.6 6.28.57 3.1-2.46 4.34-4.56 5.54-2.59 2.94-2.34 7.94 1.05 10.11 1.98 1.59 5.66-.08 6.89 2.75 1.56 2.64-.63 4.77-2.17 6.6-1.83 3.7.55 8.26 4.53 8.83 2.39.34 5.13-2.48 7.24-.19 2.41 1.91.647 4.92.18 7.29.1 3.97 4.03 7.57 8.16 5.72 1.89-1.35 3.63-4.23 6.397-2.55 3.53 1.68.84 6.99 4.35 8.96 2.88 2.67 8.315 1.04 9.26-2.83.99-3.32 6.395-3.34 7.31.04.98 3.61 6.063 5.43 9 2.99 2.173-1.61 3.07-4.13 2.7-6.89.75-3.13 5.303-3.51 6.95-.85 2.633 3.07 8.27 1.23 9.04-2.61 1.647-2.89-2.452-6.4.348-8.97 1.8-2.38 4.66-.49 6.875 0 3.965-.31 6.97-4.39 5.415-8.42-2.064-2.21-4.505-5.89-1.35-8.4 2.115-1.33 5.36.08 6.84-2.45 3.246-2.85 1.9-9.2-2.263-10.35-3.292-1.442-2.9-6.9.59-7.86 3.95-1.51 4.717-7.76 1.46-10.444-1.875-2.66-6.48-.17-7.67-3.545-1.356-2.1.125-4.44 2.09-6.483.95-2.385.73-4.27-.106-5.783-.837-1.513-2.28-2.663-4.12-2.952-2.445-.6-5.37 2.46-7.517.066-2.33-1.96-.59-4.91-.11-7.266-.135-3.554-3.258-6.973-7.08-5.9-2.737.227-3.83 4.64-7.067 2.93-3.26-.91-1.97-4.91-3.07-7.216-1.1-1.846-3.08-3.19-5.15-3.27zm-9.43 40.526c8.975-.327 15.42 10.207 11.868 18.34-2.208 6.577-10.552 10.72-17.09 7.324-7.233-3.073-9.848-13.157-5.508-19.598 2.18-3.68 6.354-6.2 10.73-6.07z"/>
    <path d="M112.124 164.403c-4.066-.04-7.11-4.287-6.167-8.233l.09-120.895 102.823-32.1.035 108.136c.024 3.91-4.14 7.41-7.777 6.4-4.25-1.05-4.698-4.11-5.327-6.4l-.21-70.52-76.77 23.93-.27 94.48c-.7 2.93-3.34 5.34-6.42 5.22z"/>
    <path d="M197.498 115.385c0-.06-.015-.075-.075-.075s-.075.014-.075.075c0 .06.015.075.075.075s.075-.014.075-.075zm-1.448-3.597c.01-.372-.016-.477-.1-.406-.045.036-.063.716-.02.758.083.084.113-.003.12-.352zm3.85 5.716c0-.014.033-.033.074-.04.05-.01.075-.002.075.024 0 .023-.04.04-.08.04s-.08-.01-.08-.024zm-.66-.394c0-.017.012-.03.03-.03.015 0 .03.014.03.03 0 .017-.015.03-.03.03-.018 0-.03-.014-.03-.03zm-.482-.3c0-.023.01-.03.02-.02.012.012.012.03 0 .04-.01.012-.02.002-.02-.02zm-.3-.18c0-.017.014-.03.03-.03.017 0 .03.014.03.03 0 .017-.013.03-.03.03-.016 0-.03-.014-.03-.03zm-.09-.09c0-.017.014-.03.03-.03.017 0 .03.014.03.03 0 .017-.013.03-.03.03-.016 0-.03-.014-.03-.03zm-.09-.105c0-.01.007-.014.015-.014.01 0 .015.01.015.02s-.006.02-.015.02c-.008 0-.015 0-.015-.01zm-.69-.675c0-.017.014-.03.03-.03.017 0 .03.014.03.03 0 .017-.013.03-.03.03-.016 0-.03-.014-.03-.03zm-.09-.09c0-.017.014-.03.03-.03.017 0 .03.014.03.03 0 .017-.014.03-.03.03s-.03-.014-.03-.03zm10.442-.945c0-.01.008-.015.016-.015s.015.006.015.015c0 .008 0 .014-.01.014s-.01-.01-.01-.02z"/>
  </g>
</svg>
